REM DIRINDEX 1\2\4,1\2\5,1\3\6,1\3\7,1\3\8
REM DIRNAME folder01,folder02,folder03,folder04,folder05,folder06,folder07,folder08
TITLE ""
FILE "LEVEL4-011-midashigo.mp3" MP3
  TRACK 01 AUDIO
    TITLE "0:"
    INDEX 01 00:00:00
  TRACK 02 AUDIO
    TITLE "6:cjc092_2969"
    INDEX 01 00:00:07
  TRACK 03 AUDIO
    TITLE "0:"
    INDEX 01 00:01:68
  TRACK 04 AUDIO
    TITLE "7:cjc092_2970"
    INDEX 01 00:02:42
  TRACK 05 AUDIO
    TITLE "8:cjc092_2971"
    INDEX 01 00:04:13
  TRACK 06 AUDIO
    TITLE "0:"
    INDEX 01 00:06:61
  TRACK 07 AUDIO
    TITLE "7:cjc092_2972"
    INDEX 01 00:07:19
  TRACK 08 AUDIO
    TITLE "8:cjc092_2973"
    INDEX 01 00:08:34
  TRACK 09 AUDIO
    TITLE "0:"
    INDEX 01 00:09:57
  TRACK 10 AUDIO
    TITLE "7:cjc092_2974"
    INDEX 01 00:10:16
  TRACK 11 AUDIO
    TITLE "8:cjc092_2975"
    INDEX 01 00:11:27
  TRACK 12 AUDIO
    TITLE "0:"
    INDEX 01 00:12:16
  TRACK 13 AUDIO
    TITLE "7:cjc092_2976"
    INDEX 01 00:12:52
  TRACK 14 AUDIO
    TITLE "8:cjc092_2977"
    INDEX 01 00:14:02
  TRACK 15 AUDIO
    TITLE "0:"
    INDEX 01 00:17:69
  TRACK 16 AUDIO
    TITLE "7:cjc092_2978"
    INDEX 01 00:18:29
  TRACK 17 AUDIO
    TITLE "8:cjc092_2979"
    INDEX 01 00:19:54
  TRACK 18 AUDIO
    TITLE "0:"
    INDEX 01 00:21:25
  TRACK 19 AUDIO
    TITLE "7:cjc092_2980"
    INDEX 01 00:21:60
  TRACK 20 AUDIO
    TITLE "8:cjc092_2981"
    INDEX 01 00:23:14
  TRACK 21 AUDIO
    TITLE "0:"
    INDEX 01 00:26:20
  TRACK 22 AUDIO
    TITLE "7:cjc092_2982"
    INDEX 01 00:26:54
  TRACK 23 AUDIO
    TITLE "8:cjc092_2983"
    INDEX 01 00:28:10
  TRACK 24 AUDIO
    TITLE "0:"
    INDEX 01 00:29:56
  TRACK 25 AUDIO
    TITLE "7:cjc092_2984"
    INDEX 01 00:30:16
  TRACK 26 AUDIO
    TITLE "8:cjc092_2985"
    INDEX 01 00:31:51
  TRACK 27 AUDIO
    TITLE "0:"
    INDEX 01 00:32:60
  TRACK 28 AUDIO
    TITLE "7:cjc092_2986"
    INDEX 01 00:33:21
  TRACK 29 AUDIO
    TITLE "8:cjc092_2987"
    INDEX 01 00:34:53
  TRACK 30 AUDIO
    TITLE "0:"
    INDEX 01 00:36:72
  TRACK 31 AUDIO
    TITLE "7:cjc092_2988"
    INDEX 01 00:37:24
  TRACK 32 AUDIO
    TITLE "8:cjc092_2989"
    INDEX 01 00:38:45
  TRACK 33 AUDIO
    TITLE "0:"
    INDEX 01 00:40:01
  TRACK 34 AUDIO
    TITLE "7:cjc092_2990"
    INDEX 01 00:40:32
  TRACK 35 AUDIO
    TITLE "8:cjc092_2991"
    INDEX 01 00:41:53
  TRACK 36 AUDIO
    TITLE "0:"
    INDEX 01 00:43:62
  TRACK 37 AUDIO
    TITLE "7:cjc092_2992"
    INDEX 01 00:44:20
  TRACK 38 AUDIO
    TITLE "8:cjc092_2993"
    INDEX 01 00:45:41
  TRACK 39 AUDIO
    TITLE "0:"
    INDEX 01 00:47:72
  TRACK 40 AUDIO
    TITLE "7:cjc092_2994"
    INDEX 01 00:48:36
  TRACK 41 AUDIO
    TITLE "8:cjc092_2995"
    INDEX 01 00:49:57
  TRACK 42 AUDIO
    TITLE "0:"
    INDEX 01 00:53:15
  TRACK 43 AUDIO
    TITLE "7:cjc092_2996"
    INDEX 01 00:53:49
  TRACK 44 AUDIO
    TITLE "8:cjc092_2997"
    INDEX 01 00:55:08
  TRACK 45 AUDIO
    TITLE "0:"
    INDEX 01 00:57:23
  TRACK 46 AUDIO
    TITLE "7:cjc092_2998"
    INDEX 01 00:57:58
  TRACK 47 AUDIO
    TITLE "8:cjc092_2999"
    INDEX 01 00:59:30
  TRACK 48 AUDIO
    TITLE "0:"
    INDEX 01 01:01:19
  TRACK 49 AUDIO
    TITLE "7:cjc092_3000"
    INDEX 01 01:01:46
  TRACK 50 AUDIO
    TITLE "8:cjc092_3001"
    INDEX 01 01:03:06
  TRACK 51 AUDIO
    TITLE "0:"
    INDEX 01 01:04:60
  TRACK 52 AUDIO
    TITLE "7:cjc092_3002"
    INDEX 01 01:05:11
  TRACK 53 AUDIO
    TITLE "8:cjc092_3003"
    INDEX 01 01:06:32
  TRACK 54 AUDIO
    TITLE "0:"
    INDEX 01 01:08:58
  TRACK 55 AUDIO
    TITLE "7:cjc092_3004"
    INDEX 01 01:09:20
  TRACK 56 AUDIO
    TITLE "8:cjc092_3005"
    INDEX 01 01:10:37
  TRACK 57 AUDIO
    TITLE "0:"
    INDEX 01 01:12:40
  TRACK 58 AUDIO
    TITLE "7:cjc092_3006"
    INDEX 01 01:12:73
  TRACK 59 AUDIO
    TITLE "8:cjc092_3007"
    INDEX 01 01:14:33
  TRACK 60 AUDIO
    TITLE "0:"
    INDEX 01 01:16:60
  TRACK 61 AUDIO
    TITLE "7:cjc092_3008"
    INDEX 01 01:17:24
  TRACK 62 AUDIO
    TITLE "8:cjc092_3009"
    INDEX 01 01:18:49
  TRACK 63 AUDIO
    TITLE "0:"
    INDEX 01 01:21:35
  TRACK 64 AUDIO
    TITLE "7:cjc092_3010"
    INDEX 01 01:21:70
  TRACK 65 AUDIO
    TITLE "8:cjc092_3011"
    INDEX 01 01:23:16
  TRACK 66 AUDIO
    TITLE "0:"
    INDEX 01 01:26:52
  TRACK 67 AUDIO
    TITLE "7:cjc092_3012"
    INDEX 01 01:27:10
  TRACK 68 AUDIO
    TITLE "8:cjc092_3013"
    INDEX 01 01:28:51
  TRACK 69 AUDIO
    TITLE "0:"
    INDEX 01 01:30:01
